<svg
  width="7"
  height="13"
  viewBox="0 0 7 13"
  fill="none"
  xmlns="http://www.w3.org/2000/svg"
>
  <path
    d="M0.0788574 1.8801C0.260191 1.7201 0.457524 1.5681 0.670857 1.4241C0.889524 1.2801 1.12419 1.15477 1.37486 1.0481C1.62552 0.941434 1.89752 0.858768 2.19086 0.800101C2.48419 0.736101 2.80152 0.704102 3.14286 0.704102C3.60686 0.704102 4.02819 0.768101 4.40686 0.896101C4.79086 1.0241 5.11886 1.2081 5.39086 1.4481C5.66286 1.68277 5.87352 1.9681 6.02286 2.3041C6.17219 2.6401 6.24686 3.0161 6.24686 3.4321C6.24686 3.83743 6.18819 4.18943 6.07086 4.4881C5.95352 4.78143 5.80419 5.03743 5.62286 5.2561C5.44686 5.47477 5.25486 5.6641 5.04686 5.8241C4.83886 5.9841 4.64152 6.1361 4.45486 6.2801C4.26819 6.41877 4.10552 6.55743 3.96686 6.6961C3.83352 6.82943 3.75352 6.98143 3.72686 7.1521L3.54286 8.3201H2.19086L2.05486 7.0161C2.04952 6.98943 2.04686 6.9681 2.04686 6.9521C2.04686 6.93077 2.04686 6.90677 2.04686 6.8801C2.04686 6.64543 2.10552 6.44277 2.22286 6.2721C2.34019 6.0961 2.48686 5.93343 2.66286 5.7841C2.83886 5.62943 3.02819 5.4801 3.23086 5.3361C3.43352 5.1921 3.62286 5.03743 3.79886 4.8721C3.97486 4.70143 4.12152 4.50943 4.23886 4.2961C4.35619 4.08277 4.41486 3.8321 4.41486 3.5441C4.41486 3.3521 4.37752 3.18143 4.30286 3.0321C4.23352 2.87743 4.13486 2.74677 4.00686 2.6401C3.87886 2.5281 3.72419 2.44277 3.54286 2.3841C3.36686 2.32543 3.17486 2.2961 2.96686 2.2961C2.66286 2.2961 2.40419 2.33077 2.19086 2.4001C1.98286 2.4641 1.80419 2.53877 1.65486 2.6241C1.51086 2.7041 1.38819 2.77877 1.28686 2.8481C1.18552 2.9121 1.09486 2.9441 1.01486 2.9441C0.822857 2.9441 0.684191 2.8641 0.598857 2.7041L0.0788574 1.8801ZM1.59086 11.3121C1.59086 11.1468 1.62019 10.9894 1.67886 10.8401C1.74286 10.6908 1.82819 10.5628 1.93486 10.4561C2.04686 10.3494 2.17752 10.2641 2.32686 10.2001C2.47619 10.1361 2.63619 10.1041 2.80686 10.1041C2.97219 10.1041 3.12952 10.1361 3.27886 10.2001C3.42819 10.2641 3.55619 10.3494 3.66286 10.4561C3.76952 10.5628 3.85486 10.6908 3.91886 10.8401C3.98286 10.9894 4.01486 11.1468 4.01486 11.3121C4.01486 11.4828 3.98286 11.6428 3.91886 11.7921C3.85486 11.9361 3.76952 12.0614 3.66286 12.1681C3.55619 12.2748 3.42819 12.3574 3.27886 12.4161C3.12952 12.4801 2.97219 12.5121 2.80686 12.5121C2.63619 12.5121 2.47619 12.4801 2.32686 12.4161C2.17752 12.3574 2.04686 12.2748 1.93486 12.1681C1.82819 12.0614 1.74286 11.9361 1.67886 11.7921C1.62019 11.6428 1.59086 11.4828 1.59086 11.3121Z"
    fill="white"
  />
</svg>
