<svg
  width="10"
  height="10"
  viewBox="0 0 10 10"
  fill="none"
  xmlns="http://www.w3.org/2000/svg"
>
  <path
    d="M5.00244 7.94201V7.94199L4.99772 7.94201C4.99763 7.94201 4.9966 7.94201 4.99331 7.94197L4.97934 7.94186V7.94185C2.60904 7.91877 1.10008 6.09538 0.551466 4.99993C1.10008 3.90448 2.60904 2.08111 4.97934 2.05803V2.05802L4.99332 2.05791C4.9977 2.05785 4.99807 2.05786 4.99757 2.05788L5.00227 2.05786C5.0023 2.05786 5.00251 2.05786 5.003 2.05787C5.00364 2.05787 5.00479 2.05788 5.00668 2.05791L5.02066 2.05802V2.05803C7.39095 2.08111 8.89991 3.9045 9.44853 4.99995C8.90012 6.09501 7.39215 7.91755 5.02352 7.94206L5.00244 7.94201Z"
    stroke="#1D222F"
  />
  <circle cx="5" cy="5" r="1.5" stroke="#1D222F" />
</svg>
